<mxfile host="app.diagrams.net" agent="Mozilla/5.0 (Windows NT 10.0; Win64; x64) AppleWebKit/537.36 (KHTML, like Gecko) Chrome/129.0.0.0 Safari/537.36" version="24.7.17">
  <diagram name="Page-1" id="TInxFAjGuHtIIi2zOX_L">
    <mxGraphModel dx="1647" dy="877" grid="1" gridSize="10" guides="1" tooltips="1" connect="1" arrows="1" fold="1" page="1" pageScale="1" pageWidth="850" pageHeight="1100" math="0" shadow="0">
      <root>
        <mxCell id="0" />
        <mxCell id="1" parent="0" />
        <mxCell id="hPbF20TdGsoORn9h735p-1" value="DataBase&lt;div&gt;- Users&lt;/div&gt;&lt;div&gt;- Events&lt;/div&gt;" style="rounded=0;whiteSpace=wrap;html=1;" vertex="1" parent="1">
          <mxGeometry x="160" y="10" width="210" height="100" as="geometry" />
        </mxCell>
        <mxCell id="hPbF20TdGsoORn9h735p-2" value="Users:&lt;div&gt;- Phone Number&lt;/div&gt;&lt;div&gt;- Email&lt;/div&gt;&lt;div&gt;- Name&lt;/div&gt;&lt;div&gt;- Roles: {&lt;/div&gt;&lt;div&gt;Admin&amp;nbsp;&lt;/div&gt;&lt;div&gt;Entrant: {waitlisted, registered events etc.}&lt;/div&gt;&lt;div&gt;Organizer{events}&lt;/div&gt;&lt;div&gt;&lt;br&gt;&lt;/div&gt;&lt;div&gt;}&lt;/div&gt;&lt;div&gt;&lt;br&gt;&lt;/div&gt;" style="rounded=0;whiteSpace=wrap;html=1;" vertex="1" parent="1">
          <mxGeometry x="90" y="140" width="470" height="190" as="geometry" />
        </mxCell>
        <mxCell id="hPbF20TdGsoORn9h735p-3" value="User" style="swimlane;fontStyle=1;align=center;verticalAlign=top;childLayout=stackLayout;horizontal=1;startSize=26;horizontalStack=0;resizeParent=1;resizeParentMax=0;resizeLast=0;collapsible=1;marginBottom=0;whiteSpace=wrap;html=1;" vertex="1" parent="1">
          <mxGeometry x="450" y="440" width="310" height="370" as="geometry" />
        </mxCell>
        <mxCell id="hPbF20TdGsoORn9h735p-5" value="" style="line;strokeWidth=1;fillColor=none;align=left;verticalAlign=middle;spacingTop=-1;spacingLeft=3;spacingRight=3;rotatable=0;labelPosition=right;points=[];portConstraint=eastwest;strokeColor=inherit;" vertex="1" parent="hPbF20TdGsoORn9h735p-3">
          <mxGeometry y="26" width="310" height="8" as="geometry" />
        </mxCell>
        <mxCell id="hPbF20TdGsoORn9h735p-6" value="+ User(&lt;span style=&quot;background-color: initial;&quot;&gt;&amp;nbsp;&lt;/span&gt;&lt;span style=&quot;background-color: initial;&quot;&gt;Phone Number&lt;/span&gt;&lt;div&gt;- Email&lt;/div&gt;&lt;div&gt;- Name&lt;/div&gt;&lt;div&gt;- Roles: {&lt;/div&gt;&lt;div&gt;Admin&amp;nbsp;&lt;/div&gt;&lt;div&gt;Entrant: {waitlisted, registered events etc.}&lt;/div&gt;&lt;div&gt;&lt;br&gt;&lt;/div&gt;&lt;div&gt;Organizer{events}&lt;/div&gt;&lt;div&gt;)&lt;/div&gt;&lt;div&gt;+ addWaitlistedEvent()&lt;/div&gt;&lt;div&gt;+ addRegisteredEvent()&lt;/div&gt;&lt;div&gt;- removeWaitlistedEvent()&lt;/div&gt;&lt;div&gt;- removeRegisteredEvent()&lt;/div&gt;&lt;div&gt;&amp;nbsp;&lt;/div&gt;&lt;div&gt;+ various setters and getters.&lt;/div&gt;&lt;div&gt;&lt;br&gt;&lt;/div&gt;&lt;div&gt;&lt;br&gt;&lt;/div&gt;" style="text;strokeColor=none;fillColor=none;align=left;verticalAlign=top;spacingLeft=4;spacingRight=4;overflow=hidden;rotatable=0;points=[[0,0.5],[1,0.5]];portConstraint=eastwest;whiteSpace=wrap;html=1;" vertex="1" parent="hPbF20TdGsoORn9h735p-3">
          <mxGeometry y="34" width="310" height="336" as="geometry" />
        </mxCell>
      </root>
    </mxGraphModel>
  </diagram>
</mxfile>
